<svg xmlns="http://www.w3.org/2000/svg" width="50" height="50" viewBox="0 0 51.046 51.046">
  <metadata><?xpacket begin="﻿" id="W5M0MpCehiHzreSzNTczkc9d"?>
<x:xmpmeta xmlns:x="adobe:ns:meta/" x:xmptk="Adobe XMP Core 5.6-c142 79.160924, 2017/07/13-01:06:39        ">
   <rdf:RDF xmlns:rdf="http://www.w3.org/1999/02/22-rdf-syntax-ns#">
      <rdf:Description rdf:about=""/>
   </rdf:RDF>
</x:xmpmeta>
                                                                                                    
                                                                                                    
                                                                                                    
                                                                                                    
                                                                                                    
                                                                                                    
                                                                                                    
                                                                                                    
                                                                                                    
                                                                                                    
                                                                                                    
                                                                                                    
                                                                                                    
                                                                                                    
                                                                                                    
                                                                                                    
                                                                                                    
                                                                                                    
                                                                                                    
                                                                                                    
                           
<?xpacket end="w"?></metadata>
<defs>
    <style>
      .cls-1 {
        fill: #f3ab1f;
        fill-rule: evenodd;
      }
    </style>
  </defs>
  <path class="cls-1" d="M1985.78,1476.71a0.84,0.84,0,0,0-1.68,0h0v1.65a0.84,0.84,0,0,0,1.68,0v-1.65Zm-0.84,9.06a0.835,0.835,0,0,0-.84.82h0v3.29a0.84,0.84,0,0,0,1.68,0v-3.29a0.835,0.835,0,0,0-.84-0.82h0Zm4.18-18.94a0.835,0.835,0,0,0-1.67,0h0v1.65a0.835,0.835,0,0,0,1.67,0v-1.65Zm-3.34,4.94a0.84,0.84,0,0,0-1.68,0v1.65a0.84,0.84,0,0,0,1.68,0v-1.65Zm0,9.88a0.84,0.84,0,0,0-1.68,0v1.65a0.84,0.84,0,0,0,1.68,0v-1.65h0Zm3.34-9.88a0.835,0.835,0,0,0-1.67,0v1.65a0.835,0.835,0,0,0,1.67,0v-1.65Zm-6.69-4.94a0.835,0.835,0,0,0-1.67,0h0v1.65a0.835,0.835,0,0,0,1.67,0v-1.65Zm3.35,0a0.84,0.84,0,0,0-1.68,0h0v1.65a0.84,0.84,0,0,0,1.68,0v-1.65Zm3.34-8.23v-1.64a0.835,0.835,0,0,0-1.67,0h0v1.64a0.835,0.835,0,0,0,1.67,0h0Zm-6.69,13.17a0.835,0.835,0,0,0-1.67,0v1.65a0.835,0.835,0,0,0,1.67,0v-1.65Zm10.04-14.81a0.84,0.84,0,0,0-1.68,0v1.64a0.84,0.84,0,0,0,1.68,0v-1.64Zm-10.87,18.93a0.828,0.828,0,0,0-.84.82h0v1.65a0.835,0.835,0,0,0,1.67,0v-1.65a0.826,0.826,0,0,0-.83-0.82h0Zm14.21,5.76a0.835,0.835,0,0,0-1.67,0v1.65a0.835,0.835,0,0,0,1.67,0v-1.65h0Zm-0.84,4.12a0.826,0.826,0,0,0-.83.82h0v3.29a0.835,0.835,0,0,0,1.67,0v-3.29a0.828,0.828,0,0,0-.84-0.82h0Zm3.35-9.88a0.835,0.835,0,0,0-.84.82h0v1.65a0.84,0.84,0,0,0,1.68,0v-1.65a0.835,0.835,0,0,0-.84-0.82h0Zm-13.38-16.46a0.837,0.837,0,0,0,.84-0.83h0v-3.47l8.36-2.06v13.76a0.831,0.831,0,0,0,.54.78l6.15,2.26v8.49a0.835,0.835,0,0,0,1.67,0v-9.06a0.827,0.827,0,0,0-.55-0.77l-6.14-2.27v-15.89a0.835,0.835,0,0,0-1.67,0v1.01l-9.4,2.31a0.822,0.822,0,0,0-.64.8v4.11a0.837,0.837,0,0,0,.84.83h0Zm14.22,12.34a0.84,0.84,0,0,0-1.68,0v1.65a0.84,0.84,0,0,0,1.68,0v-1.65Zm-3.35,0a0.835,0.835,0,0,0-1.67,0v1.65a0.835,0.835,0,0,0,1.67,0v-1.65Zm-6.69,9.88a0.835,0.835,0,0,0-1.67,0v1.65a0.835,0.835,0,0,0,1.67,0v-1.65Zm6.69-4.94a0.835,0.835,0,0,0-1.67,0v1.65a0.835,0.835,0,0,0,1.67,0v-1.65Zm-7.53,9.06a0.826,0.826,0,0,0-.83.82h0v3.29a0.835,0.835,0,0,0,1.67,0v-3.29a0.828,0.828,0,0,0-.84-0.82h0Zm0.84-9.06a0.835,0.835,0,0,0-1.67,0v1.65a0.835,0.835,0,0,0,1.67,0v-1.65Zm2.51,14a0.837,0.837,0,0,0,.84-0.83h0v-26.34a0.83,0.83,0,0,0-.64-0.8l-13.37-3.29a0.842,0.842,0,0,0-.72.15,0.865,0.865,0,0,0-.33.65v18.11a0.84,0.84,0,0,0,1.68,0V1461.3l11.7,2.89v25.69a0.837,0.837,0,0,0,.84.83h0Zm-19.23-28.81a0.84,0.84,0,0,0-1.68,0h0v1.64a0.84,0.84,0,0,0,1.68,0v-1.64Zm0-4.94a0.84,0.84,0,0,0-1.68,0h0v1.64a0.84,0.84,0,0,0,1.68,0v-1.64Zm-6.69,24.69a0.835,0.835,0,0,0-.84-0.82,0.826,0.826,0,0,0-.83.82h0v1.65a0.826,0.826,0,0,0,.83.82,0.835,0.835,0,0,0,.84-0.82v-1.65h0Zm-7.53-7.41a0.835,0.835,0,0,0,.84-0.82h0v-4.12h8.36v20.58a0.835,0.835,0,0,0,1.67,0v-21.4a0.826,0.826,0,0,0-.83-0.82h-10.04a0.826,0.826,0,0,0-.83.82v4.94a0.826,0.826,0,0,0,.83.82h0Zm9.2-12.34v1.64a0.835,0.835,0,0,0,1.67,0v-1.64a0.835,0.835,0,0,0-1.67,0h0Zm5.02-9.88a0.84,0.84,0,0,0-1.68,0v1.64a0.84,0.84,0,0,0,1.68,0v-1.64Zm-7.53,33.75a0.826,0.826,0,0,0-.83.82h0v3.29a0.828,0.828,0,0,0,.83.83,0.837,0.837,0,0,0,.84-0.83v-3.29a0.835,0.835,0,0,0-.84-0.82h0Zm38.47,6.58h-1.68v-5.05a3.3,3.3,0,0,0,2.41-4.01,3.366,3.366,0,0,0-4.08-2.37,3.284,3.284,0,0,0,0,6.38v5.05h-20.9v-3.37a4.126,4.126,0,0,0,3.26-4.86,4.192,4.192,0,0,0-4.94-3.21,4.106,4.106,0,0,0,0,8.07v3.37h-18.39v-8.31a4.126,4.126,0,0,0,3.26-4.86,4.187,4.187,0,0,0-4.93-3.21,4.106,4.106,0,0,0,0,8.07v8.31h-2.51a0.825,0.825,0,1,0-.01,1.65h48.51a0.838,0.838,0,0,0,.73-0.92A0.849,0.849,0,0,0,2003.34,1492.35Zm-47.67-12.34a2.51,2.51,0,1,1,2.51,2.47h0a2.51,2.51,0,0,1-2.51-2.47h0Zm20.07,4.94a2.511,2.511,0,1,1,2.51,2.46h0a2.488,2.488,0,0,1-2.51-2.46h0Zm23.42-.83a1.67,1.67,0,1,1,1.67,1.65,1.648,1.648,0,0,1-1.67-1.65h0Zm-38.47,2.47v3.29a0.835,0.835,0,0,0,1.67,0v-3.29a0.835,0.835,0,0,0-1.67-.01v0.01h0Zm5.02-14.82a0.835,0.835,0,0,0-.84-0.82,0.826,0.826,0,0,0-.83.82v1.65a0.826,0.826,0,0,0,.83.82,0.835,0.835,0,0,0,.84-0.82v-1.65Zm0,4.94a0.835,0.835,0,0,0-.84-0.82,0.826,0.826,0,0,0-.83.82h0v1.65a0.826,0.826,0,0,0,.83.82,0.835,0.835,0,0,0,.84-0.82v-1.65Zm-5.02-4.94v1.65a0.835,0.835,0,0,0,1.67,0v-1.65a0.835,0.835,0,0,0-1.67-.01v0.01h0Zm11.71,4.94a0.84,0.84,0,0,0-1.68,0h0v1.65a0.84,0.84,0,0,0,1.68,0v-1.65Zm3.34-9.88a0.835,0.835,0,0,0-1.67,0v1.65a0.835,0.835,0,0,0,1.67,0v-1.65Zm0-4.93a0.835,0.835,0,0,0-1.67,0h0v1.64a0.835,0.835,0,0,0,1.67,0v-1.64Zm0,9.87a0.835,0.835,0,0,0-1.67,0v1.65a0.835,0.835,0,0,0,1.67,0v-1.65Zm-0.83,4.12a0.828,0.828,0,0,0-.84.82h0v1.65a0.835,0.835,0,0,0,1.67,0v-1.65a0.826,0.826,0,0,0-.83-0.82h0Zm0.83-18.93a0.835,0.835,0,0,0-1.67,0h0v1.64a0.835,0.835,0,0,0,1.67,0v-1.64Zm-3.34,24.69a0.84,0.84,0,0,0-1.68,0h0v1.65a0.84,0.84,0,0,0,1.68,0v-1.65Zm-7.53-15.64a0.835,0.835,0,0,0,.84-0.82h0v-6.08l2.88-1.42a0.808,0.808,0,0,0,.46-0.73v-6.9l4.18-2.06,4.18,2.06v6.9a0.84,0.84,0,0,0,1.68,0v-7.41a0.825,0.825,0,0,0-.47-0.74l-4.55-2.24v-1.14a0.835,0.835,0,0,0-1.67,0v1.14l-4.56,2.24a0.823,0.823,0,0,0-.46.74v6.9l-2.88,1.41a0.834,0.834,0,0,0-.46.74v6.59a0.82,0.82,0,0,0,.83.82h0Zm7.53,5.76a0.84,0.84,0,0,0-1.68,0v1.65a0.84,0.84,0,0,0,1.68,0v-1.65Zm-0.84,14a0.835,0.835,0,0,0-.84.82h0v3.29a0.84,0.84,0,0,0,1.68,0v-3.29a0.835,0.835,0,0,0-.84-0.82h0Zm4.18-33.75a0.835,0.835,0,0,0-1.67,0v1.65a0.835,0.835,0,0,0,1.67,0v-1.65Zm-3.34,14.82a0.84,0.84,0,0,0-1.68,0h0v1.65a0.84,0.84,0,0,0,1.68,0v-1.65Z" transform="translate(-1953.557 -1443.772)"/>
</svg>
