<svg xmlns="http://www.w3.org/2000/svg" width="50" height="50" viewBox="0 0 44.795 44.795">
  <metadata><?xpacket begin="﻿" id="W5M0MpCehiHzreSzNTczkc9d"?>
<x:xmpmeta xmlns:x="adobe:ns:meta/" x:xmptk="Adobe XMP Core 5.6-c142 79.160924, 2017/07/13-01:06:39        ">
   <rdf:RDF xmlns:rdf="http://www.w3.org/1999/02/22-rdf-syntax-ns#">
      <rdf:Description rdf:about=""/>
   </rdf:RDF>
</x:xmpmeta>
                                                                                                    
                                                                                                    
                                                                                                    
                                                                                                    
                                                                                                    
                                                                                                    
                                                                                                    
                                                                                                    
                                                                                                    
                                                                                                    
                                                                                                    
                                                                                                    
                                                                                                    
                                                                                                    
                                                                                                    
                                                                                                    
                                                                                                    
                                                                                                    
                                                                                                    
                                                                                                    
                           
<?xpacket end="w"?></metadata>
<defs>
    <style>
      .cls-1 {
        fill: #f3ab1f;
        fill-rule: evenodd;
      }
    </style>
  </defs>
  <path class="cls-1" d="M1580.57,1451.69a21.245,21.245,0,1,0,21.24,21.24h0A21.266,21.266,0,0,0,1580.57,1451.69Zm18.58,15.09h-1.3a2.61,2.61,0,0,0-1.17.27l-0.48.24a0.932,0.932,0,0,1-.94-0.06l-1.81-1.2a0.856,0.856,0,0,0-.46-0.14h-0.22l0.61-.93a0.191,0.191,0,0,1,.14-0.07h1.29v0.36a0.832,0.832,0,0,0,1.65.15l0.31,0.15a2.154,2.154,0,0,0,.96.23h1.05c0.14,0.33.26,0.66,0.37,1h0Zm-6.21-7.68a0.06,0.06,0,0,1,.01-0.04l0.63-.63,0.06-.06c0.37,0.33.72,0.67,1.06,1.03l-0.52.52a0.831,0.831,0,0,0,1.17,1.18l0.45-.45a19.135,19.135,0,0,1,2.24,3.46h-0.3a0.419,0.419,0,0,1-.22-0.05l-1.29-.64a1.766,1.766,0,0,0-.82-0.19h-1.89a1.822,1.822,0,0,0-1.52.81l-1.23,1.85h-0.78a0.606,0.606,0,0,1-.61-0.61v-1.46a0.068,0.068,0,0,1,.04-0.06l1.62-.54a2.753,2.753,0,0,0,1.89-2.62v-1.49h0Zm-25.44-.73a0.265,0.265,0,0,0,.05.06l0.89,0.89a0.827,0.827,0,0,0,1.18,0l1.25-1.25a0.947,0.947,0,0,1,.67-0.28h1.1v0.06a0.822,0.822,0,0,0,.83.83,0.808,0.808,0,0,0,.37-0.09l1.45-.73a0.87,0.87,0,0,1,.31-0.07h2.97a1.444,1.444,0,0,0-.4,1.99,1.688,1.688,0,0,0,.4.4l1.15,0.76a0.076,0.076,0,0,1,.02.04v0.42a0.047,0.047,0,0,1-.05.05h-0.39a2.086,2.086,0,0,0-1.45.6l-5.59,5.6a0.142,0.142,0,0,1-.04.02h-1.42a2.6,2.6,0,0,0-2.6,2.6v0.41l-0.93-.19a0.714,0.714,0,0,1-.5-0.38l-0.55-1.1a0.834,0.834,0,0,0-.74-0.46h-0.5a0.947,0.947,0,0,1-.89-0.64l-1.16-3.48a19.748,19.748,0,0,1,4.56-6.06h0.01Zm13.07,34.14a19.583,19.583,0,0,1-18.6-25.7l0.54,1.62a2.614,2.614,0,0,0,2.46,1.79l0.31,0.63a2.379,2.379,0,0,0,1.67,1.27l3.17,0.64a0.866,0.866,0,0,1,.47.25,2.737,2.737,0,0,0,.89.58l-0.58,1.74a1.259,1.259,0,0,0-.04.27v1.77a2.643,2.643,0,0,0,1.04,2.09l2.13,1.59a0.947,0.947,0,0,1,.38.76v4.79a2.569,2.569,0,0,0,.44,1.44l1.28,1.92a1.486,1.486,0,0,0,1.24.67h0.31a1.054,1.054,0,0,0,1.06-1.06v-1.52a1.376,1.376,0,0,1,.4-0.98l1.65-1.64a3.119,3.119,0,0,0,.73-1.19l0.52-1.56a0.066,0.066,0,0,1,.05-0.04h0.44a1.723,1.723,0,0,0,1.67-1.3l0.6-2.39a1.715,1.715,0,0,0-.45-1.64l-1.16-1.16a1.725,1.725,0,0,0-1.22-.5h-1.06l-3.05-3.05a1.719,1.719,0,0,0-1.21-.5h-4.23a0.915,0.915,0,0,1-.65-0.27,2.591,2.591,0,0,0-1.32-.71l-0.59-.12v-0.73a0.956,0.956,0,0,1,.95-0.95h0.94v0.06a0.836,0.836,0,0,0,1.67,0v-0.55l0.01-.01,5.6-5.6a0.393,0.393,0,0,1,.28-0.11h0.38a1.72,1.72,0,0,0,1.72-1.72v-0.42a1.726,1.726,0,0,0-.77-1.43l-0.7-.46,1.35-.34a1.33,1.33,0,0,0-.32-2.62h-5.36a2.286,2.286,0,0,0-1.05.25l-0.55.27a1.38,1.38,0,0,0-1.09-.52h-1.37a2.578,2.578,0,0,0-1.84.76l-0.67.67-0.25-.25a19.546,19.546,0,0,1,23.57,0l-0.57.58a1.687,1.687,0,0,0-.51,1.21v1.5a1.057,1.057,0,0,1-.32.77,1.206,1.206,0,0,1-.43.27l-1.62.54a1.708,1.708,0,0,0-1.18,1.63v1.47a2.242,2.242,0,0,0,.32,1.15,3.005,3.005,0,0,0-.87.87l-0.79,1.17a2.648,2.648,0,0,0-.43,1.45v1.59a2.615,2.615,0,0,0,.43,1.44l0.95,1.43a2.618,2.618,0,0,0,2.17,1.16h2.21a0.947,0.947,0,0,1,.89.64l0.2,0.6a4.7,4.7,0,0,1,.24,1.49v0.63a8.846,8.846,0,0,0,.35,2.45l1.42,4.99a19.49,19.49,0,0,1-14.25,6.18h0Zm-5.54-12.79-2.13-1.59a0.947,0.947,0,0,1-.38-0.76v-1.64l0.66-1.96h3.47a0.06,0.06,0,0,1,.04.01l3.29,3.29a0.816,0.816,0,0,0,.59.25h1.4a0.048,0.048,0,0,1,.04.01l1.16,1.16a0.048,0.048,0,0,1,.02.05l-0.6,2.39a0.063,0.063,0,0,1-.05.05h-0.45a1.721,1.721,0,0,0-1.63,1.17l-0.51,1.56a1.456,1.456,0,0,1-.34.54l-1.64,1.64a2.992,2.992,0,0,0-.89,2.16v0.33l-0.84-1.26a0.909,0.909,0,0,1-.16-0.52v-4.79a2.638,2.638,0,0,0-1.05-2.09h0Zm19.96,1.18a7.156,7.156,0,0,1-.28-2v-0.63a6.288,6.288,0,0,0-.33-2.02l-0.2-.59a2.578,2.578,0,0,0-2.47-1.78h-2.21a0.941,0.941,0,0,1-.78-0.42l-0.95-1.43a0.965,0.965,0,0,1-.16-0.52v-1.58a1,1,0,0,1,.16-0.53l0.79-1.18a1.488,1.488,0,0,1,1.24-.66h2.94l1.6,1.06a2.6,2.6,0,0,0,2.61.16l0.48-.24a1,1,0,0,1,.42-0.1h1.78a19.59,19.59,0,0,1-3.52,16.39Zm-18.12-21.65a0.82,0.82,0,0,0-1.11-.37h-0.01l-1.77.89a0.827,0.827,0,0,0,.74,1.48h0l1.78-.88a0.834,0.834,0,0,0,.37-1.12h0Zm12.57-1.35a0.828,0.828,0,0,0-.83.83h0v0.89a0.83,0.83,0,0,0,1.66,0v-0.89a0.828,0.828,0,0,0-.83-0.83h0Z" transform="translate(-1558.163 -1450.543)"/>
</svg>
