<svg xmlns="http://www.w3.org/2000/svg" width="50" height="50" viewBox="0 0 44.795 44.795">
  <metadata><?xpacket begin="﻿" id="W5M0MpCehiHzreSzNTczkc9d"?>
<x:xmpmeta xmlns:x="adobe:ns:meta/" x:xmptk="Adobe XMP Core 5.6-c142 79.160924, 2017/07/13-01:06:39        ">
   <rdf:RDF xmlns:rdf="http://www.w3.org/1999/02/22-rdf-syntax-ns#">
      <rdf:Description rdf:about=""/>
   </rdf:RDF>
</x:xmpmeta>
                                                                                                    
                                                                                                    
                                                                                                    
                                                                                                    
                                                                                                    
                                                                                                    
                                                                                                    
                                                                                                    
                                                                                                    
                                                                                                    
                                                                                                    
                                                                                                    
                                                                                                    
                                                                                                    
                                                                                                    
                                                                                                    
                                                                                                    
                                                                                                    
                                                                                                    
                                                                                                    
                           
<?xpacket end="w"?></metadata>
<defs>
    <style>
      .cls-1 {
        fill: #f3ab1f;
        fill-rule: evenodd;
      }
    </style>
  </defs>
  <path class="cls-1" d="M1210.65,1496.61v-0.64a4.067,4.067,0,0,0-4.07-4.07h-17.73l-7.64-5.97a4.084,4.084,0,0,0-5.72.7l-0.4.51,7.8,6.08-1.38,2.11h-5.83v1.28h2.77l-3.31,5.19,1.08,0.69,3.76-5.88h25.73l3.76,5.88,1.08-.69-3.31-5.19h3.41Zm-27.6-1.28,0.86-1.31,1.67,1.31h-2.53Zm4.62,0-10.71-8.37a2.808,2.808,0,0,1,3.46-.02l7.99,6.24h18.17a2.792,2.792,0,0,1,2.71,2.14h-21.62v0.01Zm17.86-31.55a20.62,20.62,0,0,0-25.2,0c-3.36,2.69-5.29,6.19-5.29,9.6v0.65h1.27l0.19-.21a3.384,3.384,0,0,1,4.77-.47,3.218,3.218,0,0,1,.59.63l0.72,0.89,0.53-.66a3.749,3.749,0,0,1,5.27-.57,3.84,3.84,0,0,1,.57.57l0.53,0.66,0.53-.66a3.746,3.746,0,0,1,2.36-1.35v17.97h1.29v-17.94a3.665,3.665,0,0,1,2.19,1.32l0.53,0.66,0.53-.66a3.749,3.749,0,0,1,5.27-.57,3.84,3.84,0,0,1,.57.57l0.53,0.66,0.72-.89a3.38,3.38,0,0,1,4.73-.75,2.928,2.928,0,0,1,.63.59l0.19,0.21h1.27v-0.64c0-3.42-1.93-6.92-5.29-9.61h0Zm-23.58,8.49a4.576,4.576,0,0,0-5.53-.1c0.68-4.35,4.89-8.8,10.87-10.59a13.553,13.553,0,0,0-2.22,2.32,16.086,16.086,0,0,0-3.12,8.37h0Zm6.66-.03a5.01,5.01,0,0,0-5.38.14c0.37-4.9,3.41-10,7.63-11.3a13.159,13.159,0,0,0-1.16,3.04,37.077,37.077,0,0,0-1.09,8.12h0Zm4.32-.71a4.93,4.93,0,0,0-3.04,1.02,35.689,35.689,0,0,1,1.05-8.1c0.78-2.91,1.65-3.68,1.99-3.68s1.21,0.77,1.99,3.68a35.676,35.676,0,0,1,1.05,8.09,4.983,4.983,0,0,0-3.04-1.01h0Zm6.9,0a4.986,4.986,0,0,0-2.58.71,36.483,36.483,0,0,0-1.09-8.12,13.131,13.131,0,0,0-1.15-3.04c4.21,1.3,7.25,6.4,7.62,11.3a4.91,4.91,0,0,0-2.8-.85h0Zm6.79-.24a4.55,4.55,0,0,0-2.7.98,16.185,16.185,0,0,0-3.13-8.37,13.181,13.181,0,0,0-2.22-2.32c5.98,1.79,10.19,6.25,10.87,10.59a4.673,4.673,0,0,0-2.82-.88h0Z" transform="translate(-1170.523 -1458.588)"/>
</svg>
